# xmcd CD database file
#
# Track frame offsets:
#	150
#	44044
#	84953
#	128898
#	158405
#	209717
#	256101
#
# Disc length: 3872 seconds
#
# Revision: 1
# Processed by: cddbd v1.5.2PL0 Copyright (c) Steve Scherf et al.
# Submitted via: CDex 1.51
#
DISCID=580f1e07
DTITLE=European Jazz Orchestra der EBU - JAZZ
DYEAR=2008
DGENRE=Jazz
TTITLE0=Two Circles
TTITLE1=Iyosaii
TTITLE2=The 14th Voyage
TTITLE3=Progression
TTITLE4=Sky Lift
TTITLE5=Kvaprabra
TTITLE6=Tanzlied
EXTD=YEAR: 2008
EXTT0=
EXTT1=
EXTT2=
EXTT3=
EXTT4=
EXTT5=
EXTT6=
PLAYORDER=
